<svg xmlns="http://www.w3.org/2000/svg" fill="none" viewBox="36 25.5 24 24">
<path d="M37.5 25.5C36.66 25.5 36 26.2543 36 27.2143C36 28.1743 36.66 28.9286 37.5 28.9286C38.34 28.9286 39 28.1743 39 27.2143C39 26.2543 38.34 25.5 37.5 25.5ZM42 25.5V28.9286H60V25.5H42ZM37.5 32.3571C36.66 32.3571 36 33.1114 36 34.0714C36 35.0314 36.66 35.7857 37.5 35.7857C38.34 35.7857 39 35.0314 39 34.0714C39 33.1114 38.34 32.3571 37.5 32.3571ZM42 32.3571V35.7857H60V32.3571H42ZM37.5 39.2143C36.66 39.2143 36 39.9686 36 40.9286C36 41.8886 36.66 42.6429 37.5 42.6429C38.34 42.6429 39 41.8886 39 40.9286C39 39.9686 38.34 39.2143 37.5 39.2143ZM42 39.2143V42.6429H60V39.2143H42ZM37.5 46.0714C36.66 46.0714 36 46.8257 36 47.7857C36 48.7457 36.66 49.5 37.5 49.5C38.34 49.5 39 48.7457 39 47.7857C39 46.8257 38.34 46.0714 37.5 46.0714ZM42 46.0714V49.5H60V46.0714H42Z" fill="#BDCDD6"/>
</svg>