<svg xmlns="http://www.w3.org/2000/svg" fill="none" viewBox="30.83 15 24 42.12">
<path d="M32.3333 15C31.4933 15 30.8333 15.7543 30.8333 16.7143C30.8333 17.6743 31.4933 18.4286 32.3333 18.4286C33.1733 18.4286 33.8333 17.6743 33.8333 16.7143C33.8333 15.7543 33.1733 15 32.3333 15ZM36.8333 15V18.4286H54.8333V15H36.8333ZM32.3333 21.8571C31.4933 21.8571 30.8333 22.6114 30.8333 23.5714C30.8333 24.5314 31.4933 25.2857 32.3333 25.2857C33.1733 25.2857 33.8333 24.5314 33.8333 23.5714C33.8333 22.6114 33.1733 21.8571 32.3333 21.8571ZM36.8333 21.8571V25.2857H54.8333V21.8571H36.8333ZM32.3333 28.7143C31.4933 28.7143 30.8333 29.4686 30.8333 30.4286C30.8333 31.3886 31.4933 32.1429 32.3333 32.1429C33.1733 32.1429 33.8333 31.3886 33.8333 30.4286C33.8333 29.4686 33.1733 28.7143 32.3333 28.7143ZM36.8333 28.7143V32.1429H54.8333V28.7143H36.8333ZM32.3333 35.5714C31.4933 35.5714 30.8333 36.3257 30.8333 37.2857C30.8333 38.2457 31.4933 39 32.3333 39C33.1733 39 33.8333 38.2457 33.8333 37.2857C33.8333 36.3257 33.1733 35.5714 32.3333 35.5714ZM36.8333 35.5714V39H54.8333V35.5714H36.8333Z" fill="#6096B4"/>
<path d="M34.2753 57V48.6H35.5833V55.824H39.2673V57H34.2753ZM40.1591 57V51.072H41.4131V57H40.1591ZM40.1591 49.92V48.6H41.4131V49.92H40.1591ZM44.6287 57.12C44.1607 57.12 43.7607 57.068 43.4287 56.964C43.0967 56.86 42.8227 56.75 42.6067 56.634L42.7387 55.494C42.9427 55.634 43.2007 55.77 43.5127 55.902C43.8287 56.03 44.1847 56.094 44.5807 56.094C44.9247 56.094 45.1867 56.038 45.3667 55.926C45.5507 55.81 45.6427 55.64 45.6427 55.416C45.6427 55.232 45.5887 55.084 45.4807 54.972C45.3727 54.856 45.2307 54.76 45.0547 54.684C44.8787 54.608 44.6927 54.538 44.4967 54.474C44.1887 54.374 43.8967 54.258 43.6207 54.126C43.3487 53.994 43.1267 53.818 42.9547 53.598C42.7867 53.374 42.7027 53.078 42.7027 52.71C42.7027 52.39 42.7827 52.096 42.9427 51.828C43.1027 51.56 43.3447 51.348 43.6687 51.192C43.9967 51.032 44.4127 50.952 44.9167 50.952C45.3007 50.952 45.6267 50.994 45.8947 51.078C46.1667 51.158 46.4087 51.254 46.6207 51.366L46.4887 52.476C46.2767 52.312 46.0467 52.176 45.7987 52.068C45.5547 51.956 45.2687 51.9 44.9407 51.9C44.6367 51.9 44.3947 51.96 44.2147 52.08C44.0347 52.196 43.9447 52.374 43.9447 52.614C43.9447 52.87 44.0507 53.056 44.2627 53.172C44.4747 53.288 44.8047 53.422 45.2527 53.574C45.4567 53.642 45.6567 53.724 45.8527 53.82C46.0487 53.912 46.2267 54.024 46.3867 54.156C46.5507 54.288 46.6807 54.452 46.7767 54.648C46.8727 54.844 46.9207 55.078 46.9207 55.35C46.9207 55.662 46.8447 55.952 46.6927 56.22C46.5447 56.488 46.3027 56.706 45.9667 56.874C45.6347 57.038 45.1887 57.12 44.6287 57.12ZM50.0563 57.12C49.6843 57.12 49.3823 57.048 49.1503 56.904C48.9223 56.76 48.7543 56.576 48.6463 56.352C48.5423 56.128 48.4903 55.892 48.4903 55.644V52.074H47.5483L47.6623 51.072H48.4903V49.674L49.7443 49.542V51.072H51.1963V52.074H49.7443V55.008C49.7443 55.352 49.7643 55.602 49.8043 55.758C49.8443 55.91 49.9423 56.006 50.0983 56.046C50.2543 56.086 50.5023 56.106 50.8423 56.106H51.1783L51.0703 57.12H50.0563Z" fill="#6096B4"/>
</svg>