<svg xmlns="http://www.w3.org/2000/svg" fill="none" viewBox="31.44 17 30.78 40.12">
<path d="M55.04 21.82L49.28 17.79C47.71 16.69 45.3 16.75 43.79 17.92L38.78 21.83C37.78 22.61 36.99 24.21 36.99 25.47V32.37C36.99 34.92 39.06 37 41.61 37H52.39C54.94 37 57.01 34.93 57.01 32.38V25.6C57.01 24.25 56.14 22.59 55.04 21.82ZM47.75 33C47.75 33.41 47.41 33.75 47 33.75C46.59 33.75 46.25 33.41 46.25 33V30C46.25 29.59 46.59 29.25 47 29.25C47.41 29.25 47.75 29.59 47.75 30V33Z" fill="#6096B4"/>
<path d="M31.442 57V48.6H32.75V52.008H36.842V48.6H38.15V57H36.842V53.238H32.75V57H31.442ZM42.3738 57.12C41.7458 57.12 41.2078 56.982 40.7598 56.706C40.3158 56.426 39.9758 56.054 39.7398 55.59C39.5078 55.122 39.3918 54.606 39.3918 54.042C39.3918 53.474 39.5078 52.956 39.7398 52.488C39.9758 52.02 40.3158 51.648 40.7598 51.372C41.2078 51.092 41.7458 50.952 42.3738 50.952C43.0058 50.952 43.5438 51.092 43.9878 51.372C44.4358 51.648 44.7758 52.02 45.0078 52.488C45.2438 52.956 45.3618 53.474 45.3618 54.042C45.3618 54.606 45.2438 55.122 45.0078 55.59C44.7758 56.054 44.4358 56.426 43.9878 56.706C43.5438 56.982 43.0058 57.12 42.3738 57.12ZM42.3738 56.046C42.9258 56.046 43.3478 55.866 43.6398 55.506C43.9358 55.146 44.0838 54.658 44.0838 54.042C44.0838 53.422 43.9358 52.93 43.6398 52.566C43.3478 52.202 42.9258 52.02 42.3738 52.02C41.8298 52.02 41.4098 52.202 41.1138 52.566C40.8178 52.93 40.6698 53.422 40.6698 54.042C40.6698 54.658 40.8178 55.146 41.1138 55.506C41.4098 55.866 41.8298 56.046 42.3738 56.046ZM46.5429 57V51.072H47.5689L47.7369 52.092L47.4069 51.87C47.7149 51.566 48.0369 51.338 48.3729 51.186C48.7089 51.034 49.0769 50.958 49.4769 50.958C49.7809 50.958 50.0609 51.006 50.3169 51.102C50.5729 51.194 50.7989 51.344 50.9949 51.552C51.1949 51.76 51.3549 52.036 51.4749 52.38L51.1509 52.266C51.3349 51.858 51.6089 51.538 51.9729 51.306C52.3409 51.074 52.8009 50.958 53.3529 50.958C53.8689 50.958 54.2969 51.06 54.6369 51.264C54.9809 51.464 55.2369 51.76 55.4049 52.152C55.5729 52.54 55.6569 53.018 55.6569 53.586V57H54.4029V53.64C54.4029 53.084 54.3029 52.678 54.1029 52.422C53.9069 52.162 53.5829 52.032 53.1309 52.032C52.8469 52.032 52.6129 52.078 52.4289 52.17C52.2449 52.258 52.1009 52.38 51.9969 52.536C51.8969 52.688 51.8269 52.858 51.7869 53.046C51.7469 53.234 51.7269 53.426 51.7269 53.622V57H50.4729V53.766C50.4729 53.33 50.4229 52.986 50.3229 52.734C50.2229 52.482 50.0769 52.302 49.8849 52.194C49.6929 52.086 49.4609 52.032 49.1889 52.032C48.8129 52.032 48.4869 52.116 48.2109 52.284C47.9389 52.452 47.7369 52.704 47.6049 53.04L47.7969 52.362V57H46.5429ZM59.9755 57.12C59.2675 57.12 58.6755 56.978 58.1995 56.694C57.7235 56.406 57.3635 56.026 57.1195 55.554C56.8795 55.078 56.7595 54.558 56.7595 53.994C56.7595 53.446 56.8715 52.942 57.0955 52.482C57.3235 52.022 57.6535 51.654 58.0855 51.378C58.5215 51.098 59.0475 50.958 59.6635 50.958C60.1875 50.958 60.6415 51.064 61.0255 51.276C61.4095 51.488 61.7035 51.784 61.9075 52.164C62.1155 52.544 62.2195 52.988 62.2195 53.496C62.2195 53.6 62.2135 53.708 62.2015 53.82C62.1935 53.932 62.1775 54.05 62.1535 54.174H58.0555C58.1075 54.642 58.2315 55.014 58.4275 55.29C58.6235 55.562 58.8675 55.756 59.1595 55.872C59.4515 55.988 59.7675 56.046 60.1075 56.046C60.4115 56.046 60.7115 56.012 61.0075 55.944C61.3035 55.872 61.5815 55.77 61.8415 55.638L61.9555 56.664C61.7275 56.772 61.4475 56.876 61.1155 56.976C60.7835 57.072 60.4035 57.12 59.9755 57.12ZM58.1275 53.316H60.9355C60.9355 53.08 60.8915 52.866 60.8035 52.674C60.7155 52.478 60.5755 52.322 60.3835 52.206C60.1955 52.09 59.9515 52.032 59.6515 52.032C59.2115 52.032 58.8695 52.148 58.6255 52.38C58.3855 52.612 58.2195 52.924 58.1275 53.316Z" fill="#6096B4"/>
</svg>