<svg xmlns="http://www.w3.org/2000/svg" fill="none" viewBox="31.78 15 27.27 42.12">
<path d="M36.7619 15C36.5219 15 36.3162 15.03 36.1105 15.09C34.7733 15.33 33.7105 16.26 33.4362 17.43C33.3333 17.61 33.3333 17.79 33.3333 18V34.5C33.3333 36.99 35.6305 39 38.4762 39H57.3333V36H38.4762C37.5162 36 36.7619 35.34 36.7619 34.5C36.7619 33.66 37.5162 33 38.4762 33H57.3333V16.5C57.3333 15.66 56.579 15 55.619 15H53.9047V24L50.4762 21L47.0476 24V15H36.7619Z" fill="#6096B4"/>
<path d="M31.7753 57V48.6H33.0833V55.824H36.7673V57H31.7753ZM40.4213 57.12C39.7133 57.12 39.1213 56.978 38.6453 56.694C38.1693 56.406 37.8093 56.026 37.5653 55.554C37.3253 55.078 37.2053 54.558 37.2053 53.994C37.2053 53.446 37.3173 52.942 37.5413 52.482C37.7693 52.022 38.0993 51.654 38.5313 51.378C38.9673 51.098 39.4933 50.958 40.1093 50.958C40.6333 50.958 41.0873 51.064 41.4713 51.276C41.8553 51.488 42.1493 51.784 42.3533 52.164C42.5613 52.544 42.6653 52.988 42.6653 53.496C42.6653 53.6 42.6593 53.708 42.6473 53.82C42.6393 53.932 42.6233 54.05 42.5993 54.174H38.5013C38.5533 54.642 38.6773 55.014 38.8733 55.29C39.0693 55.562 39.3133 55.756 39.6053 55.872C39.8973 55.988 40.2133 56.046 40.5533 56.046C40.8573 56.046 41.1573 56.012 41.4533 55.944C41.7493 55.872 42.0273 55.77 42.2873 55.638L42.4013 56.664C42.1733 56.772 41.8933 56.876 41.5613 56.976C41.2293 57.072 40.8493 57.12 40.4213 57.12ZM38.5733 53.316H41.3813C41.3813 53.08 41.3373 52.866 41.2493 52.674C41.1613 52.478 41.0213 52.322 40.8293 52.206C40.6413 52.09 40.3973 52.032 40.0973 52.032C39.6573 52.032 39.3153 52.148 39.0713 52.38C38.8313 52.612 38.6653 52.924 38.5733 53.316ZM45.1673 57.12C44.8233 57.12 44.5173 57.048 44.2493 56.904C43.9813 56.756 43.7693 56.552 43.6133 56.292C43.4613 56.032 43.3853 55.726 43.3853 55.374C43.3853 55.038 43.4613 54.752 43.6133 54.516C43.7653 54.276 43.9673 54.076 44.2193 53.916C44.4713 53.756 44.7473 53.63 45.0473 53.538C45.3513 53.442 45.6593 53.372 45.9713 53.328C46.2833 53.284 46.5733 53.26 46.8413 53.256C46.8373 52.788 46.7373 52.472 46.5413 52.308C46.3453 52.14 46.0473 52.056 45.6473 52.056C45.4073 52.056 45.1613 52.092 44.9093 52.164C44.6573 52.232 44.3733 52.362 44.0573 52.554L43.9133 51.534C44.2013 51.358 44.5233 51.218 44.8793 51.114C45.2353 51.01 45.6033 50.958 45.9833 50.958C46.4593 50.958 46.8533 51.042 47.1653 51.21C47.4773 51.378 47.7113 51.656 47.8673 52.044C48.0233 52.432 48.1013 52.952 48.1013 53.604V54.984C48.1013 55.272 48.1133 55.498 48.1373 55.662C48.1653 55.822 48.2233 55.936 48.3113 56.004C48.3993 56.072 48.5333 56.106 48.7133 56.106H48.8573L48.7013 57.12H48.4253C48.1293 57.12 47.8893 57.088 47.7053 57.024C47.5253 56.96 47.3793 56.87 47.2673 56.754C47.1553 56.634 47.0613 56.492 46.9853 56.328C46.7733 56.568 46.5093 56.76 46.1933 56.904C45.8813 57.048 45.5393 57.12 45.1673 57.12ZM45.5513 56.136C45.7753 56.136 46.0053 56.08 46.2413 55.968C46.4813 55.856 46.6833 55.7 46.8473 55.5V54.108C46.3993 54.128 46.0133 54.182 45.6893 54.27C45.3693 54.354 45.1213 54.482 44.9453 54.654C44.7733 54.826 44.6873 55.046 44.6873 55.314C44.6873 55.602 44.7633 55.812 44.9153 55.944C45.0673 56.072 45.2793 56.136 45.5513 56.136ZM49.777 57V51.072H50.881L50.971 51.9C51.211 51.612 51.467 51.382 51.739 51.21C52.015 51.038 52.313 50.952 52.633 50.952C52.729 50.952 52.819 50.962 52.903 50.982L52.795 52.284C52.727 52.268 52.657 52.256 52.585 52.248C52.517 52.24 52.445 52.236 52.369 52.236C52.081 52.236 51.817 52.302 51.577 52.434C51.341 52.562 51.173 52.708 51.073 52.872V57H49.777ZM53.7442 57V51.072H54.8182L54.9682 52.194L54.5842 51.894C54.9082 51.558 55.2462 51.318 55.5982 51.174C55.9502 51.03 56.3182 50.958 56.7022 50.958C57.5222 50.958 58.1182 51.21 58.4902 51.714C58.8622 52.214 59.0482 52.88 59.0482 53.712V57H57.7942V53.766C57.7942 53.17 57.6882 52.732 57.4762 52.452C57.2642 52.172 56.9062 52.032 56.4022 52.032C56.0302 52.032 55.7022 52.118 55.4182 52.29C55.1382 52.458 54.9342 52.71 54.8062 53.046L54.9982 52.356V57H53.7442Z" fill="#6096B4"/>
</svg>